# This file uses centimeters as units for non-parametric coordinates.

mtllib toybox.mtl
g default
v -12.500000 0.213411 12.500000
v 12.500000 0.213411 12.500000
v 12.500000 25.213411 12.500000
v -12.500000 25.213411 12.500000
v 12.500000 0.213411 -12.500000
v 12.500000 25.213411 -12.500000
v -11.500000 25.213411 11.500000
v 11.500000 25.213411 11.500000
v 11.500000 3.012875 11.500000
v -11.500000 3.012875 11.500000
v 11.500000 25.213411 -11.500000
v 11.500000 3.012875 -11.500000
v -12.500000 25.213411 -12.500000
v -11.500000 25.213411 -11.500000
v -11.500000 3.012875 -11.500000
v -12.500000 0.213411 -12.500000
v -3.844407 31.900278 10.731644
v -3.308109 31.229860 9.873112
v -3.308109 31.229860 -9.873112
v -3.844407 31.900278 -10.731644
v 9.122519 28.806410 -17.841846
v 9.915781 28.432131 -18.541262
v -9.915781 28.432131 -18.541262
v -9.122519 28.806410 -17.841846
v 18.911121 27.656607 -10.699944
v 18.911121 27.656607 10.699944
v 18.240337 28.188372 -9.843948
v 18.240337 28.188372 9.843948
v 12.998496 27.924735 5.212902
v -6.114320 27.924735 5.212902
v 12.233988 27.924735 4.448389
v -5.349810 27.924735 4.448389
vt 0.375000 0.000000
vt 0.625000 0.000000
vt 0.625000 0.250000
vt 0.375000 0.250000
vt 0.875000 0.000000
vt 0.875000 0.250000
vt 0.375000 0.241310
vt 0.625000 0.241310
vt 0.625000 0.000000
vt 0.375000 0.000000
vt 0.875000 0.241310
vt 0.875000 0.000000
vt 0.625000 0.500000
vt 0.375000 0.500000
vt 0.385000 0.490000
vt 0.615000 0.490000
vt 0.615000 0.260000
vt 0.385000 0.260000
vt 0.375000 0.750000
vt 0.375000 1.000000
vt 0.625000 1.000000
vt 0.625000 0.750000
vt 0.125000 0.241310
vt 0.125000 0.000000
vt 0.625000 0.508690
vt 0.375000 0.508690
vt 0.375000 0.750000
vt 0.625000 0.750000
vt 0.625000 1.000000
vt 0.375000 1.000000
vt 0.125000 0.000000
vt 0.125000 0.250000
vt 0.224582 0.250000
vt 0.234582 0.260000
vt 0.234582 0.490000
vt 0.224582 0.500000
vt 0.615000 0.582668
vt 0.625000 0.592668
vt 0.375000 0.592668
vt 0.385000 0.582668
vt 0.757959 0.250000
vt 0.757959 0.500000
vt 0.747959 0.490000
vt 0.747959 0.260000
vt 0.375000 0.092867
vt 0.625000 0.092867
vt 0.615000 0.102867
vt 0.385000 0.102867
vn 0.000000 0.000000 1.000000
vn 0.000000 0.000000 1.000000
vn 0.000000 0.000000 1.000000
vn 0.000000 0.000000 1.000000
vn 1.000000 0.000000 0.000000
vn 1.000000 0.000000 0.000000
vn 1.000000 0.000000 0.000000
vn 1.000000 0.000000 0.000000
vn 0.000000 0.000000 -1.000000
vn 0.000000 0.000000 -1.000000
vn 0.000000 0.000000 -1.000000
vn 0.000000 0.000000 -1.000000
vn -1.000000 0.000000 0.000000
vn -1.000000 0.000000 0.000000
vn -1.000000 0.000000 0.000000
vn -1.000000 0.000000 0.000000
vn 0.000000 0.881695 -0.471821
vn 0.000000 0.881694 -0.471821
vn 0.000000 0.881694 -0.471821
vn 0.000000 0.881695 -0.471821
vn 0.780890 0.624669 0.000000
vn 0.780890 0.624669 0.000000
vn 0.780890 0.624669 0.000000
vn 0.780890 0.624669 0.000000
vn 0.000000 1.000000 0.000000
vn 0.000000 1.000000 0.000000
vn 0.000000 1.000000 0.000000
vn 0.000000 1.000000 0.000000
vn 1.000000 0.000000 0.000000
vn 1.000000 0.000000 0.000000
vn 1.000000 0.000000 0.000000
vn 1.000000 0.000000 0.000000
vn 0.000000 0.000000 1.000000
vn 0.000000 0.000000 1.000000
vn 0.000000 0.000000 1.000000
vn 0.000000 0.000000 1.000000
vn 0.000000 -1.000000 0.000000
vn 0.000000 -1.000000 0.000000
vn 0.000000 -1.000000 0.000000
vn 0.000000 -1.000000 0.000000
vn -1.000000 0.000000 0.000000
vn -1.000000 0.000000 0.000000
vn -1.000000 0.000000 0.000000
vn -1.000000 0.000000 0.000000
vn 0.000000 0.000000 -1.000000
vn 0.000000 0.000000 -1.000000
vn 0.000000 0.000000 -1.000000
vn 0.000000 0.000000 -1.000000
vn 0.621226 0.783632 0.000000
vn 0.621226 0.783632 0.000000
vn -0.289010 0.957073 -0.021995
vn -0.289010 0.957073 0.021995
vn 0.000000 0.940554 0.339645
vn 0.000000 0.942118 0.335283
vn 0.000000 1.000000 0.000000
vn 0.000000 1.000000 0.000000
vn 0.539713 -0.544086 0.642402
vn 0.539713 -0.544086 0.642402
vn 0.539713 -0.544086 0.642402
vn 0.539713 -0.544086 0.642402
vn 0.591943 -0.805980 0.000000
vn 0.591943 -0.805980 0.000000
vn 0.591943 -0.805980 0.000000
vn 0.591943 -0.805980 0.000000
vn 0.539713 -0.544086 -0.642402
vn 0.539713 -0.544086 -0.642402
vn 0.539713 -0.544086 -0.642402
vn 0.539713 -0.544086 -0.642402
vn -0.611359 0.791354 0.000000
vn -0.611359 0.791354 0.000000
vn -0.611359 0.791353 0.000000
vn -0.611359 0.791353 0.000000
vn 0.448094 0.846897 0.286318
vn 0.448094 0.846897 0.286318
vn 0.448094 0.846897 0.286318
vn 0.448094 0.846897 0.286318
vn 0.000000 -0.882552 -0.470214
vn 0.000000 -0.882552 -0.470214
vn 0.000000 -0.882552 -0.470214
vn 0.000000 -0.882552 -0.470214
vn -0.448094 0.846897 0.286319
vn -0.448094 0.846896 0.286319
vn -0.448094 0.846897 0.286319
vn -0.448094 0.846896 0.286319
vn 0.000000 0.870064 0.492938
vn 0.000000 0.870064 0.492938
vn 0.000000 0.870064 0.492938
vn 0.000000 0.870064 0.492938
vn 0.356105 -0.934446 0.000000
vn 0.356105 -0.934446 0.000000
vn 0.356105 -0.934446 0.000000
vn 0.356105 -0.934446 0.000000
vn -0.233754 0.858519 -0.456404
vn -0.398500 0.916960 -0.019541
vn -0.233754 0.858519 -0.456403
vn -0.398500 0.916960 0.019541
vn -0.233754 0.858519 0.456404
vn -0.233754 0.858519 0.456403
vn 0.000000 0.937228 0.348716
vn 0.000000 0.937228 0.348716
vn 0.312416 -0.897103 -0.312415
vn 0.019369 -0.933881 -0.357058
vn 0.009674 -0.933676 -0.357989
vn 0.312416 -0.897103 -0.312415
vn -0.048412 -0.917419 -0.394968
vn -0.002004 -0.932794 -0.360405
vn -0.688343 -0.228850 -0.688340
vn -0.688343 -0.228850 -0.688340
s off
g toybox1
usemtl standardSurface2SG
f 1/1/1 2/2/2 3/3/3 4/4/4
f 2/2/5 5/5/6 6/6/7 3/3/8
f 7/7/9 8/8/10 9/9/11 10/10/12
f 8/8/13 11/11/14 12/12/15 9/9/16
f 21/37/17 22/38/18 23/39/19 24/40/20
f 17/33/21 18/34/22 19/35/23 20/36/24
f 15/19/25 10/20/26 9/21/27 12/22/28
f 14/23/29 7/7/30 10/10/31 15/24/32
f 11/25/33 14/26/34 15/19/35 12/22/36
f 16/27/37 5/28/38 2/29/39 1/30/40
f 16/31/41 1/1/42 4/4/43 13/32/44
f 13/14/45 6/13/46 5/28/47 16/27/48
s 1
f 26/41/49 25/42/50 27/43/51 28/44/52
s 2
f 30/45/53 29/46/54 31/47/55 32/48/56
s off
f 4/4/57 7/18/58 18/34/59 17/33/60
f 7/18/61 14/15/62 19/35/63 18/34/64
f 14/15/65 13/14/66 20/36/67 19/35/68
f 13/14/69 4/4/70 17/33/71 20/36/72
f 11/16/73 6/13/74 22/38/75 21/37/76
f 6/13/77 13/14/78 23/39/79 22/38/80
f 13/14/81 14/15/82 24/40/83 23/39/84
f 14/15/85 11/16/86 21/37/87 24/40/88
f 3/3/89 6/13/90 25/42/91 26/41/92
s 1
f 6/13/93 11/16/94 27/43/51 25/42/95
f 11/16/94 8/17/96 28/44/52 27/43/51
f 8/17/96 3/3/97 26/41/98 28/44/52
s 2
f 4/4/99 3/3/100 29/46/54 30/45/53
s 3
f 3/3/101 8/17/102 31/47/103 29/46/104
f 8/17/102 7/18/105 32/48/106 31/47/103
f 7/18/105 4/4/107 30/45/108 32/48/106
